# xmcd CD database file
#
# Track frame offsets:
#	150
#	14374
#	30373
#	45160
#	65213
#	79219
#	99539
#	113511
#	127937
#	139548
#	158203
#	172396
#	194610
#
# Disc length: 2741 seconds
#
# Revision: 0
# Processed by: cddbd v1.5.2PL0 Copyright (c) Steve Scherf et al.
# Submitted via: CDex 1.99.1
#
DISCID=a80ab30d
DTITLE=Brigette DeMeyer - Savannah Road
DYEAR=2013
DGENRE=Country
TTITLE0=Savannah Road
TTITLE1=Say You Will Be Mine
TTITLE2=Boy's Got Soul
TTITLE3=Please Believe Me
TTITLE4=Big Man's Shoes
TTITLE5=Conjure woman
TTITLE6=Honey Hush
TTITLE7=Worker
TTITLE8=Home Ground
TTITLE9=Lightnin' Poor
TTITLE10=Simmer right
TTITLE11=Build Me A Fire
TTITLE12=My Someday
EXTD=YEAR: 2013
EXTT0=
EXTT1=
EXTT2=
EXTT3=
EXTT4=
EXTT5=
EXTT6=
EXTT7=
EXTT8=
EXTT9=
EXTT10=
EXTT11=
EXTT12=
PLAYORDER=
